Coordinates
version=1
nRows=11
nColumns=36
inDegrees=yes

Units are S.I. units (second, meters, Newtons, ...)
If the header above contains a line with 'inDegrees', this indicates whether rotational values are in degrees (yes) or radians (no).

endheader
time	pelvis_tilt	pelvis_list	pelvis_rotation	pelvis_tx	pelvis_ty	pelvis_tz	hip_flexion_r	hip_adduction_r	hip_rotation_r	knee_angle_r	knee_angle_r_beta	ankle_angle_r	subtalar_angle_r	mtp_angle_r	hip_flexion_l	hip_adduction_l	hip_rotation_l	knee_angle_l	knee_angle_l_beta	ankle_angle_l	subtalar_angle_l	mtp_angle_l	lumbar_extension	lumbar_bending	lumbar_rotation	arm_flex_r	arm_add_r	arm_rot_r	elbow_flex_r	pro_sup_r	arm_flex_l	arm_add_l	arm_rot_l	elbow_flex_l	pro_sup_l
      0.00000000	      7.34356182	     -0.26491206	      2.83107599	      0.74466143	      0.99430784	      0.03077102	     -5.71383136	      6.11854206	     10.20729819	      6.24420889	      0.10898200	      3.42737847	     -7.50279314	     -6.28273410	     15.30226452	     -2.96487782	      2.30407859	     14.96420113	      0.26117458	      0.56295656	     -8.91026757	     -6.28273410	    -11.83960350	      5.31439068	     -0.01597979	     35.47350958	     12.72716482	     63.20574985	    122.96410581	    109.27813674	     44.86576751	     17.92579177	     68.40154114	    120.48146163	    106.02125076
      0.01666670	      5.97658545	     -1.36367747	      1.39874397	      0.74680149	      0.98986952	      0.03146058	     -3.46441815	      6.88427927	     12.90669000	      6.55881059	      0.11447284	      5.56643553	     -7.90384388	     -6.33020886	     16.39108944	     -4.76331618	      1.94635330	     13.05254729	      0.22780993	     -1.74135212	     -8.62655411	     -6.33020886	     -8.68815453	      7.27964107	      0.12749925	     36.32001332	     13.52692340	     64.27603972	    124.40504493	    108.58901420	     46.43669605	     17.18308839	     67.32467118	    123.15088173	    105.20114609
      0.03333330	      4.59541560	     -1.60080352	      0.78885021	      0.74928972	      0.98990207	      0.03270283	     -2.54891964	      7.04980444	     13.25744085	      5.90691376	      0.10309509	      5.75166354	     -8.59916707	     -6.46937255	     17.58536310	     -5.13256507	      1.71690312	     12.12197013	      0.21156829	     -3.37317600	     -9.11256271	     -6.46937255	     -6.63044476	      7.66157486	      1.14594203	     35.07189886	     13.26861565	     65.69929603	    124.74945709	    106.37922553	     45.61058473	     17.13217343	     67.41994065	    124.69519654	    102.87060959
      0.05000000	      4.25050899	     -1.54286708	      0.42853055	      0.74950868	      0.98606184	      0.03344964	     -2.33668329	      7.04765485	     13.75587450	      5.86640480	      0.10238808	      6.38216677	     -8.78450128	     -6.60912174	     17.92348703	     -5.21529313	      1.83574396	     12.15455045	      0.21213692	     -3.91875097	     -9.74874367	     -6.60912174	     -6.11370862	      7.64511436	      1.81792443	     34.40926758	     13.26459866	     66.88837152	    124.07686329	    103.93773955	     45.59462497	     17.43644266	     67.50425855	    124.91365865	    100.33718347
      0.06666670	      3.85043987	     -1.48176799	      0.28707910	      0.75032052	      0.98857897	      0.03390067	     -2.06251132	      6.98184250	     13.81863357	      5.61827011	      0.09805731	      6.49222244	     -8.74048473	     -6.77069703	     18.38229154	     -5.17487858	      1.92132749	     12.42191146	      0.21680325	     -4.55207629	    -10.27939593	     -6.77069703	     -5.61896945	      7.74270918	      2.34125542	     33.40212920	     13.07659563	     68.02237380	    123.11854676	    100.76279289	     45.16477624	     17.57152300	     68.36875107	    124.74095283	     97.06490042
      0.08333330	      3.26749394	     -1.47694210	      0.08044644	      0.75067789	      0.98269100	      0.03468705	     -1.41864695	      7.04141931	     14.38348742	      5.69587979	      0.09941186	      6.34955888	     -9.43248703	     -6.77666996	     19.38088418	     -5.19591850	      1.80617355	     13.31462006	      0.23238396	     -4.16049847	    -10.08895040	     -6.77666996	     -4.87003219	      7.64578445	      2.59655832	     32.68633146	     13.12355878	     68.35827684	    122.60250472	     99.29767420	     45.28920549	     17.63245462	     69.12141727	    124.36399962	     95.55936869
      0.10000000	      3.15489541	     -1.46350918	      0.03599159	      0.75102434	      0.98620583	      0.03428152	     -1.26614165	      6.95156325	     14.38192904	      5.58926619	      0.09755110	      6.30815909	     -8.83488257	     -6.89610200	     19.61921770	     -5.08511987	      2.39022179	     13.61236415	      0.23758057	     -5.03030684	    -11.58039022	     -6.89610200	     -4.62803586	      7.68597103	      2.63966283	     32.31809002	     13.13047103	     68.47397351	    121.93250226	     96.69235475	     45.15488998	     17.64059364	     69.41792250	    124.06963542	     92.54784525
      0.11666670	      2.82748262	     -1.52998583	      0.01623138	      0.75126862	      0.98561200	      0.03434726	     -0.92453772	      6.98274163	     14.69346980	      5.44567226	      0.09504491	      5.94074159	     -9.02950796	     -6.93876928	     20.08470814	     -5.05978689	      2.77050030	     13.89638745	      0.24253772	     -5.36632767	    -12.34690380	     -6.93876928	     -4.10928436	      7.72356604	      2.55096379	     31.91482295	     13.17836551	     68.56307766	    121.82521595	     96.11114345	     44.99990749	     17.68213753	     69.81515624	    123.64313140	     91.01321142
      0.13333330	      2.69458189	     -1.58372577	     -0.03466898	      0.75154534	      0.98367415	      0.03458017	     -0.78125754	      6.99751671	     14.91853354	      5.45243290	      0.09516291	      5.70992412	     -8.94699986	     -6.98528354	     20.51690530	     -5.05721268	      2.89801358	     14.44854828	      0.25217474	     -5.54760704	    -12.94189394	     -6.98528354	     -3.85824936	      7.69215273	      2.38597162	     31.82323786	     13.31326199	     68.59652237	    121.85491337	     95.32134963	     44.93157745	     17.75680993	     70.02622727	    123.35611125	     88.97908144
      0.15000000	      2.46963969	     -1.65676023	     -0.09524887	      0.74661681	      0.98078592	      0.03141290	     -0.16559748	      7.02122630	     14.97897037	      5.76744010	      0.10066082	      5.71813392	     -9.06959665	     -6.99213828	     21.34436313	     -5.00525234	      2.91954672	     15.18405036	      0.26501167	     -5.48801546	    -13.33070994	     -6.99213828	     -3.86960549	      7.84868416	      2.30028022	     32.10975602	     13.26050048	     68.27988144	    121.92201347	     95.26973722	     45.21442622	     17.89217418	     69.80151781	    123.24644719	     88.48871430
      0.16666670	      2.18943117	     -1.61444594	     -0.15831719	      0.74707099	      0.98175351	      0.03148741	      0.36620386	      6.92374907	     15.17444136	      5.95558622	      0.10394459	      5.53569684	     -9.28919545	     -7.16248099	     21.96548170	     -4.85286081	      3.10928099	     15.70742326	      0.27414625	     -5.82575316	    -13.95325634	     -7.16248099	     -3.57535791	      7.79744625	      2.18367388	     32.22239198	     13.26217212	     68.03709434	    121.96780874	     94.47808929	     45.13682359	     17.94244131	     70.22193036	    123.03182971	     78.56149526
